<?xml version="1.0" standalone="no"?>
<!DOCTYPE svg PUBLIC "-//W3C//DTD SVG 1.1//EN" "http://www.w3.org/Graphics/SVG/1.1/DTD/svg11.dtd"><svg t="1723539285240"
  class="icon" viewBox="0 0 1126 1024" version="1.1" xmlns="http://www.w3.org/2000/svg" p-id="2582" width="17"
  height="16" xmlns:xlink="http://www.w3.org/1999/xlink">
  <path
    d="M971.686991 1023.8976h-450.456924a36.556745 36.556745 0 1 1 0-73.11349h413.33698v-402.277797a36.812745 36.812745 0 0 1 37.119944-36.556745h43.622335a36.505545 36.505545 0 0 0 34.303948-22.630366 35.379147 35.379147 0 0 0-7.987188-39.88474l-349.490676-344.165884a113.30543 113.30543 0 0 0-78.745482-32.102352h-99.83985a113.30543 113.30543 0 0 0-78.745482 32.102352L85.56992 449.588062a35.379147 35.379147 0 0 0-7.987188 39.88474 36.659145 36.659145 0 0 0 34.303949 22.630366h43.263935a36.812745 36.812745 0 0 1 37.119944 36.556745v401.970597h413.43938a36.556745 36.556745 0 1 1 0 73.11349h-450.559324a36.812745 36.812745 0 0 1-37.119944-36.556745v-402.072997h-6.399991a109.516636 109.516636 0 0 1-102.860646-67.788698 106.85424 106.85424 0 0 1 24.422364-119.654221l349.337076-344.319483A185.650922 185.650922 0 0 1 513.550078 0.001536h99.83985a185.087722 185.087722 0 0 1 131.123004 53.60632l349.388276 344.063483a106.90544 106.90544 0 0 1 24.115164 119.551821 109.567836 109.567836 0 0 1-102.707046 67.891098h-6.399991v402.226597a36.812745 36.812745 0 0 1-37.119944 36.556745z"
    p-id="2583" data-spm-anchor-id="a313x.search_index.0.i7.71f83a81V3wVUf" class="selected"></path>
  <path
    d="M523.124464 633.190986l-3.327995 31.180753-35.327947 161.023759 235.929246-250.879624h-111.974232l4.812793-32.307151 41.369538-177.868534-242.022037 268.799597z m-126.003011 52.172722c-45.721531 0-75.673486-47.411129-43.315135-81.203078l265.266802-291.839562a56.934315 56.934315 0 0 1 95.487857 46.07993l-35.839947 160.40936h57.241515c45.721531 0 75.673486 47.411129 43.468734 80.998278l-264.498803 281.241178a52.582321 52.582321 0 0 1-92.159862-38.195142l32.921551-157.388564H397.070253z"
    p-id="2584" data-spm-anchor-id="a313x.search_index.0.i6.71f83a81V3wVUf" class="selected"></path>
</svg>