<?xml version="1.0" standalone="no"?><!DOCTYPE svg PUBLIC "-//W3C//DTD SVG 1.1//EN" "http://www.w3.org/Graphics/SVG/1.1/DTD/svg11.dtd"><svg t="1723102331119" class="icon" viewBox="0 0 1024 1024" version="1.1" xmlns="http://www.w3.org/2000/svg" p-id="7088" xmlns:xlink="http://www.w3.org/1999/xlink" width="64" height="64"><path d="M791.272727 372.363636a93.090909 93.090909 0 0 1 93.090909 93.090909v232.727273a93.090909 93.090909 0 0 1-93.090909 93.090909h-46.545454v46.545455a46.545455 46.545455 0 0 1-93.090909 0v-46.545455H372.363636v46.545455a46.545455 46.545455 0 0 1-93.090909 0v-46.545455H232.727273a93.090909 93.090909 0 0 1-93.090909-93.090909v-232.727273a93.090909 93.090909 0 0 1 93.090909-93.090909h558.545454z m46.545455-186.181818a46.545455 46.545455 0 0 1 0 93.090909H186.181818a46.545455 46.545455 0 1 1 0-93.090909h651.636364z" fill="#5B82BD" p-id="7089"></path></svg>