<?xml version="1.0" standalone="no"?><!DOCTYPE svg PUBLIC "-//W3C//DTD SVG 1.1//EN" "http://www.w3.org/Graphics/SVG/1.1/DTD/svg11.dtd"><svg t="1723102484406" class="icon" viewBox="0 0 1024 1024" version="1.1" xmlns="http://www.w3.org/2000/svg" p-id="9560" xmlns:xlink="http://www.w3.org/1999/xlink" width="64" height="64"><path d="M539.52 154.496c-16.64-11.306667-38.4-11.306667-55.04 0L166.954667 370.218667c-13.781333 9.386667-22.101333 25.173333-22.101334 42.069333v415.146667c0 27.904 22.229333 50.56 49.621334 50.56h155.477333V674.56c0-61.44 48.853333-111.232 109.141333-111.232h105.813334c60.288 0 109.184 49.834667 109.184 111.232v203.392h155.434666c27.392 0 49.621333-22.613333 49.621334-50.56v-415.146667c0-16.896-8.32-32.682667-22.101334-42.069333l-317.525333-215.722667z m-88.064-50.474667a107.434667 107.434667 0 0 1 121.088 0l317.525333 215.722667A111.786667 111.786667 0 0 1 938.666667 412.330667v415.104C938.666667 888.874667 889.813333 938.666667 829.525333 938.666667H644.266667a30.037333 30.037333 0 0 1-29.781334-30.336v-233.728c0-27.904-22.186667-50.56-49.621333-50.56h-105.813333c-27.434667 0-49.621333 22.656-49.621334 50.56v233.728a30.037333 30.037333 0 0 1-29.781333 30.336H194.56C134.144 938.666667 85.333333 888.874667 85.333333 827.434667v-415.146667a111.786667 111.786667 0 0 1 48.64-92.544l317.482667-215.722667z" fill="#000000" fill-opacity=".65" p-id="9561"></path></svg>