<?xml version="1.0" standalone="no"?><!DOCTYPE svg PUBLIC "-//W3C//DTD SVG 1.1//EN" "http://www.w3.org/Graphics/SVG/1.1/DTD/svg11.dtd"><svg t="1723549145154" class="icon" viewBox="0 0 1024 1024" version="1.1" xmlns="http://www.w3.org/2000/svg" p-id="5374" width="16" height="16" xmlns:xlink="http://www.w3.org/1999/xlink"><path d="M949.910323 46.651405c15.441391 0 28.004134 12.562743 28.004134 28.004134l0 891.133158c0 15.441391-12.562743 28.004134-28.004134 28.004134L58.818447 993.79283c-15.441391 0-28.004134-12.562743-28.004134-28.004134L30.814314 74.655539c0-15.441391 12.562743-28.004134 28.004134-28.004134L949.910323 46.651405M949.910323 16.445242 58.818447 16.445242c-32.148419 0-58.210297 26.061877-58.210297 58.210297l0 891.133158c0 32.149426 26.061877 58.210297 58.210297 58.210297l891.091876 0c32.148419 0 58.210297-26.061877 58.210297-58.210297L1008.12062 74.655539C1008.12062 42.507119 982.058743 16.445242 949.910323 16.445242L949.910323 16.445242z" p-id="5375"></path><path d="M498.927276 170.946745c19.842428 0 35.985609 16.14318 35.985609 35.985609L534.912885 578.564818c0 19.842428-16.14318 35.985609-35.985609 35.985609L192.974086 614.550427c-19.842428 0-35.985609-16.14318-35.985609-35.985609L156.988477 206.932354c0-19.842428 16.14318-35.985609 35.985609-35.985609L498.927276 170.946745M498.927276 140.740582 192.974086 140.740582c-36.556505 0-66.191772 29.635266-66.191772 66.191772L126.782314 578.564818c0 36.556505 29.635266 66.191772 66.191772 66.191772l305.95319 0c36.556505 0 66.191772-29.635266 66.191772-66.191772L565.119048 206.932354C565.119048 170.375848 535.483781 140.740582 498.927276 140.740582L498.927276 140.740582z" p-id="5376"></path><path d="M845.730274 361.66141c3.490826 0 6.331212 2.840386 6.331212 6.331212l0 115.693632c0 3.490826-2.840386 6.331212-6.331212 6.331212L792.546283 490.017465c-3.490826 0-6.331212-2.840386-6.331212-6.331212L786.215071 367.991615c0-3.490826 2.840386-6.331212 6.331212-6.331212L845.730274 361.660403M845.730274 331.455247 792.546283 331.455247c-20.178724 0-36.537375 16.358651-36.537375 36.537375l0 115.693632c0 20.178724 16.358651 36.537375 36.537375 36.537375l53.183991 0c20.178724 0 36.537375-16.358651 36.537375-36.537375L882.267649 367.991615C882.267649 347.812891 865.910005 331.455247 845.730274 331.455247L845.730274 331.455247z" p-id="5377"></path><path d="M875.622293 172.960489c2.850455 0 5.168274 2.318826 5.168274 5.168274l0 54.138506c0 2.850455-2.318826 5.168274-5.168274 5.168274L761.054345 237.435544c-2.850455 0-5.168274-2.318826-5.168274-5.168274l0-54.138506c0-2.850455 2.318826-5.168274 5.168274-5.168274L875.622293 172.960489M875.622293 142.754326 761.054345 142.754326c-19.537346 0-35.374437 15.838098-35.374437 35.374437l0 54.138506c0 19.537346 15.838098 35.374437 35.374437 35.374437l114.567949 0c19.537346 0 35.374437-15.838098 35.374437-35.374437l0-54.138506C910.996731 158.592424 895.159639 142.754326 875.622293 142.754326L875.622293 142.754326z" p-id="5378"></path><path d="M519.660786 738.705811c8.410403 0 15.252099 6.841696 15.252099 15.252099l0 97.348422c0 8.410403-6.841696 15.252099-15.252099 15.252099L172.240576 866.558431c-8.410403 0-15.252099-6.842703-15.252099-15.252099l0-97.348422c0-8.410403 6.842703-15.252099 15.252099-15.252099L519.660786 738.705811M519.660786 708.499648 172.240576 708.499648c-25.106356 0-45.458262 20.352913-45.458262 45.458262l0 97.348422c0 25.106356 20.352913 45.458262 45.458262 45.458262l347.419204 0c25.106356 0 45.458262-20.352913 45.458262-45.458262l0-97.348422C565.119048 728.851554 544.766135 708.499648 519.660786 708.499648L519.660786 708.499648z" p-id="5379"></path><path d="M646.247767 46.677584l30.206163 0 0 947.046779-30.206163 0 0-947.046779Z" p-id="5380"></path></svg>