<?xml version="1.0" standalone="no"?><!DOCTYPE svg PUBLIC "-//W3C//DTD SVG 1.1//EN" "http://www.w3.org/Graphics/SVG/1.1/DTD/svg11.dtd"><svg t="1723175365505" class="icon" viewBox="0 0 1024 1024" version="1.1" xmlns="http://www.w3.org/2000/svg" p-id="13566" width="64" height="64" xmlns:xlink="http://www.w3.org/1999/xlink"><path d="M874.666667 704h-42.666667V243.413333L801.92 213.333333H222.08L192 243.413333V704H149.333333V225.92L204.586667 170.666667h614.826666L874.666667 225.92V704z" p-id="13567"></path><path d="M512 618.666667a85.333333 85.333333 0 1 1 85.333333-85.333334 85.333333 85.333333 0 0 1-85.333333 85.333334z m0-128a42.666667 42.666667 0 1 0 42.666667 42.666666 42.666667 42.666667 0 0 0-42.666667-42.666666z" p-id="13568"></path><path d="M660.053333 752c-18.986667-71.253333-73.386667-147.84-148.053333-147.84s-128 76.586667-148.053333 147.84l-2.773334 10.24L415.573333 832H533.333333v-42.666667h-96.853333l-28.373333-36.266666c17.066667-53.333333 57.6-106.666667 103.893333-106.666667s86.826667 52.906667 103.893333 106.666667L587.52 789.333333H576v42.666667h32.426667l54.4-69.76zM661.333333 640h-21.333333v-42.666667h21.333333a42.666667 42.666667 0 0 0 8.106667-85.333333l-14.293333 14.293333-30.293334-30.293333 27.733334-26.666667H661.333333a85.333333 85.333333 0 0 1 0 170.666667z" p-id="13569"></path><path d="M788.053333 773.333333c-18.986667-71.253333-73.386667-147.84-148.053333-147.84v42.666667c46.293333 0 86.826667 52.906667 103.893333 106.666667zM384 640h-22.613333a85.333333 85.333333 0 0 1 0-170.666667h8.533333l28.8 27.093334-29.44 31.146666-15.573333-14.933333a42.666667 42.666667 0 0 0 7.68 85.333333H384z" p-id="13570"></path><path d="M235.946667 773.333333c20.053333-71.253333 73.386667-147.84 148.053333-147.84v42.666667c-46.293333 0-86.826667 52.906667-103.893333 106.666667z" p-id="13571"></path></svg>