<?xml version="1.0" standalone="no"?><!DOCTYPE svg PUBLIC "-//W3C//DTD SVG 1.1//EN" "http://www.w3.org/Graphics/SVG/1.1/DTD/svg11.dtd"><svg t="1723102419866" class="icon" viewBox="0 0 1113 1024" version="1.1" xmlns="http://www.w3.org/2000/svg" p-id="8481" xmlns:xlink="http://www.w3.org/1999/xlink" width="69.5625" height="64"><path d="M667.826087 11.130435a33.391304 33.391304 0 0 1 3.205565 66.626782L667.826087 77.913043v66.760348l211.70087 0.022261a122.434783 122.434783 0 0 1 105.561043 60.416l2.671304 4.741565 1.513739 2.893913 100.218435 333.222957c8.347826 16.562087 13.04487 35.261217 13.04487 55.073391v289.391305a122.434783 122.434783 0 0 1-122.434783 122.434782H134.077217a122.434783 122.434783 0 0 1-122.434782-122.278956l-0.400696-289.391305c0-10.50713 1.313391-20.702609 3.784348-30.452869a32.901565 32.901565 0 0 1 0.489739-9.572174l0.779131-3.138783L120.164174 212.72487l1.513739-2.893913a122.434783 122.434783 0 0 1 102.778435-65.00174l5.431652-0.133565h215.30713l0.022261-66.782609a33.391304 33.391304 0 0 1-3.205565-66.626782L445.217391 11.130435h222.608696z m312.275478 534.260869H133.609739a55.652174 55.652174 0 0 0-55.585391 55.718957l0.400695 289.391304a55.652174 55.652174 0 0 0 55.652174 55.585392h846.024348a55.652174 55.652174 0 0 0 55.652174-55.652174V601.043478c0-4.85287-0.623304-9.549913-1.780869-14.024348a31.120696 31.120696 0 0 1-3.739827-6.722782l-1.068521-3.027478-1.558261-5.253566a55.629913 55.629913 0 0 0-47.504696-26.624zM734.608696 756.869565a33.391304 33.391304 0 0 1 3.205565 66.626783L734.608696 823.652174H473.288348l19.545043 22.79513 2.092522 2.693566a33.391304 33.391304 0 0 1-50.44313 43.252869l-2.359653-2.493217-66.782608-77.913044-0.445218-0.534261c-0.467478-0.556522-0.890435-1.135304-1.335652-1.736347l-0.311652-0.445218-0.356174-0.534261a33.146435 33.146435 0 0 1-1.691826-2.804869l-0.489739-0.979479-0.779131-1.669565a33.369043 33.369043 0 0 1-2.226087-7.791304l-0.222608-1.691826-0.133565-1.647305-0.044522-1.246608V790.26087l0.022261-1.246609 0.066782-1.224348 0.022261-0.289391 0.24487-2.159305a49.619478 49.619478 0 0 1 0.623304-3.116521l0.24487-0.979479 0.311652-1.024 0.333913-1.024a33.391304 33.391304 0 0 1 7.034435-11.642434l1.335652-1.335653-0.267131 0.222609a33.613913 33.613913 0 0 1 1.313392-1.202087l0.378434-0.333913a34.05913 34.05913 0 0 1 6.054957-4.140522l0.979478-0.489739 1.335652-0.623304 0.333913-0.155826c0.734609-0.311652 1.469217-0.578783 2.226087-0.845913l0.934957-0.289392 0.979478-0.289391 0.979478-0.26713a34.593391 34.593391 0 0 1 4.674783-0.779131l1.335652-0.111304 1.246609-0.044522H734.608696z m-43.787131-157.785043l2.359652 2.493217 66.782609 77.913044 0.445217 0.53426 0.667827 0.845914-0.667827-0.845914 1.179827 1.536 0.155826 0.200348 0.667826 0.979479a33.146435 33.146435 0 0 1 2.003478 3.405913l0.868174 1.847652 0.133565 0.311652a33.168696 33.168696 0 0 1 2.181565 7.68l0.222609 1.691826c0.111304 1.179826 0.178087 2.337391 0.178087 3.539478l-0.066783 1.936696v0.400696l-0.044521 0.133565v0.26713l-0.24487 2.181565a49.619478 49.619478 0 0 1-0.623304 3.116522l-0.24487 0.979478c-0.222609 0.75687-0.445217 1.536-0.734609 2.29287l-0.289391 0.734609a33.235478 33.235478 0 0 1-9.416348 13.312l-2.070261 1.602782-1.179826 0.845913a33.146435 33.146435 0 0 1-2.804869 1.691826l-0.979478 0.48974-1.335653 0.623304-0.333913 0.155826a33.369043 33.369043 0 0 1-2.226087 0.845913l-0.934956 0.289391-0.979478 0.289392-0.979479 0.26713a34.593391 34.593391 0 0 1-4.36313 0.75687l-0.333913 0.022261-2.003478 0.133565h-0.667826L734.608696 734.608696H400.695652a33.391304 33.391304 0 0 1-3.205565-66.626783L400.695652 667.826087h261.320348l-19.545043-22.79513a33.391304 33.391304 0 0 1 48.350608-45.946435zM667.826087 378.434783c0 2.671304-0.311652 5.275826-0.912696 7.791304l0.445218 2.114783a33.391304 33.391304 0 0 1-27.291826 38.533565A485.509565 485.509565 0 0 1 556.521739 434.086957c-27.91513 0-56.921043-2.29287-83.300174-6.611479a33.391304 33.391304 0 0 1-27.558956-38.333217l0.534261-2.671304a33.302261 33.302261 0 0 1-0.823653-4.830609L445.217391 378.434783V211.478261h-215.329391a55.652174 55.652174 0 0 0-47.126261 26.045217l-0.712348 1.179826L109.189565 481.057391c7.880348-1.602783 16.027826-2.448696 24.375652-2.448695h846.536348c6.767304 0 13.423304 0.556522 19.878957 1.602782l-72.659479-241.552695-0.667826-1.113044a55.652174 55.652174 0 0 0-43.03026-25.911652L879.526957 211.478261 667.826087 211.456V378.434783zM601.043478 77.913043h-89.043478v287.254261c14.669913 1.402435 29.785043 2.137043 44.521739 2.137044 15.159652 0 29.762783-0.77913 44.521739-2.359652V267.130435h-33.391304a33.391304 33.391304 0 0 1-3.205565-66.626783L567.652174 200.347826H601.043478V178.086957h-33.391304a33.391304 33.391304 0 0 1-3.205565-66.626783L567.652174 111.304348H601.043478V77.913043z" fill="#000000" p-id="8482"></path></svg>